#!OML:ASF H:\Male1\Project 1\Capture day 1\Session 1\Male1.ASF
:FULLY-SPECIFIED
:DEGREES
504
root -28.1237 14.9699 -0.276016 1079.83 -117.208 -0.529889
lowerback 6.35885 -2.87776 -5.70148
upperback 4.7572 -4.29274 -0.653425
thorax 1.73231 -2.37066 2.69656
lowerneck -1.21098 -13.5421 -7.3578
upperneck 0.281572 -18.114 8.11342
head 1.8339 -9.03651 3.28862
rclavicle 3.39922e-014 0
rhumerus -49.6793 23.1186 -96.6926
rradius 80.5658
rwrist -32.5615
rhand -35.9733 11.5488
rfingers 7.12502
rthumb -9.08401 -18.2355
lclavicle 3.39922e-014 0
lhumerus -40.3492 2.51582 82.5915
lradius 61.2673
lwrist 6.29005
lhand -26.2667 4.73051
lfingers 7.12502
lthumb 0.288175 34.7101
rfemur -11.301 22.2243 21.1664
rtibia 33.7932
rfoot -23.0716 -11.8308
rtoes -31.3848
lfemur -8.56258 -15.8661 -22.2425
ltibia 33.5899
lfoot -26.8797 24.4238
ltoes 0.224072
505
root -28.1274 14.967 -0.264202 1079.78 -117.559 -0.490923
lowerback 6.28873 -2.89873 -5.68329
upperback 4.74488 -4.31447 -0.611162
thorax 1.76229 -2.38169 2.72665
lowerneck -1.23038 -13.4747 -7.30411
upperneck 0.446936 -18.0246 7.94882
head 1.86064 -8.98992 3.22608
rclavicle -4.18442e-014 1.19271e-014
rhumerus -49.7712 23.1712 -96.6576
rradius 80.3193
rwrist -32.6283
rhand -36.0075 11.557
rfingers 7.12502
rthumb -9.11708 -18.2259
lclavicle -4.18442e-014 1.19271e-014
lhumerus -40.3779 2.84048 82.4427
lradius 58.4698
lwrist 6.31145
lhand -26.0324 5.56996
lfingers 7.12502
lthumb 0.51441 35.5491
rfemur -11.3203 22.296 21.1165
rtibia 33.7689
rfoot -23.052 -11.6001
rtoes -31.4398
lfemur -8.45064 -16.0314 -22.3529
ltibia 33.5991
lfoot -27.2995 24.7232
ltoes 0.834166
506
root -28.1307 14.9647 -0.253979 1079.89 -117.886 -0.619686
lowerback 6.19516 -2.91182 -5.7667
upperback 4.72274 -4.32871 -0.591075
thorax 1.80096 -2.39111 2.78864
lowerneck -1.24451 -13.4192 -7.27305
upperneck 0.617394 -17.9523 7.80562
head 1.89451 -8.95207 3.17303
rclavicle 2.24627e-014 2.94201e-014
rhumerus -49.8554 23.1712 -96.605
rradius 80.0205
rwrist -32.7313
rhand -35.9259 11.665
rfingers 7.12502
rthumb -9.03833 -18.1213
lclavicle 2.24627e-014 2.94201e-014
lhumerus -40.4002 3.17997 82.2361
lradius 55.5089
lwrist 6.23392
lhand -25.661 6.45608
lfingers 7.12502
lthumb 0.873203 36.434
rfemur -11.3793 22.3602 20.9749
rtibia 33.7841
rfoot -23.0768 -11.338
rtoes -31.415
lfemur -8.32936 -16.1708 -22.5325
ltibia 33.5605
lfoot -27.6691 24.9834
ltoes 1.45015
507
root -28.1334 14.9631 -0.24492 1080.01 -118.18 -0.753771
lowerback 6.10411 -2.91796 -5.86373
upperback 4.69794 -4.3343 -0.579643
thorax 1.83514 -2.39624 2.84924
lowerneck -1.25752 -13.3795 -7.25825
upperneck 0.777765 -17.9012 7.68657
head 1.93108 -8.92513 3.12931
rclavicle 4.11484e-014 -1.82882e-014
rhumerus -49.94 23.1161 -96.5518
rradius 79.6836
rwrist -32.9393
rhand -35.7737 11.8576
rfingers 7.12502
rthumb -8.89143 -17.9351
lclavicle 4.11484e-014 -1.82882e-014
lhumerus -40.4332 3.53046 81.963
lradius 52.4535
lwrist 5.97012
lhand -25.1794 7.26414
lfingers 7.12502
lthumb 1.33828 37.2397
rfemur -11.4247 22.4203 20.8361
rtibia 33.8005
rfoot -23.1228 -11.0876
rtoes -31.3994
lfemur -8.20891 -16.2509 -22.6978
ltibia 33.5063
lfoot -27.9544 25.1943
ltoes 1.97539
508
root -28.1362 14.9623 -0.236469 1079.94 -118.406 -0.723768
lowerback 6.04791 -2.93085 -5.87633
upperback 4.68145 -4.34753 -0.559226
thorax 1.85315 -2.40305 2.8746
lowerneck -1.25156 -13.3515 -7.2568
upperneck 0.900113 -17.8664 7.59994
head 1.95808 -8.90704 3.0998
rclavicle -8.09054e-014 1.90833e-014
rhumerus -50.0272 23.0138 -96.5077
rradius 79.3183
rwrist -33.2356
rhand -35.6074 11.9829
rfingers 7.12502
rthumb -8.73095 -17.8165
lclavicle -8.09054e-014 1.90833e-014
lhumerus -40.4994 3.89957 81.6148
lradius 49.3791
lwrist 5.45909
lhand -24.6474 7.95776
lfingers 7.12502
lthumb 1.8521 37.9295
rfemur -11.3988 22.4684 20.8053
rtibia 33.7911
rfoot -23.173 -10.9035
rtoes -31.4343
lfemur -8.07288 -16.2898 -22.77
ltibia 33.4537
lfoot -28.1479 25.3574
ltoes 2.33168
